<svg id="Layer_1" data-name="Layer 1" xmlns="http://www.w3.org/2000/svg" xmlns:xlink="http://www.w3.org/1999/xlink" viewBox="0 0 50 50"><defs><style>.cls-1,.cls-8{fill:#fff;}.cls-2{fill:#212931;}.cls-3{fill:#59ba4f;}.cls-4{mask:url(#mask);}.cls-5{fill:#4cbaeb;}.cls-6{mask:url(#mask-2-2);}.cls-7{fill:#f58020;}.cls-8{fill-rule:evenodd;}</style><mask id="mask" x="29.88" y="18" width="14.02" height="14.14" maskUnits="userSpaceOnUse"><g id="mask-2"><rect id="path-1" class="cls-1" x="30.92" y="18" width="12.98" height="14.14"/></g></mask><mask id="mask-2-2" x="6.1" y="18" width="14.02" height="14.14" maskUnits="userSpaceOnUse"><g id="mask-4"><rect id="path-3" class="cls-1" x="6.1" y="18" width="12.98" height="14.14"/></g></mask></defs><g id="letterboxd-decal-dots-pos-rgb"><circle id="Circle" class="cls-2" cx="25" cy="25" r="25"/><g id="dots-neg"><g id="Dots"><ellipse id="Green" class="cls-3" cx="25" cy="25" rx="7.01" ry="7"/><g id="Blue"><g class="cls-4"><ellipse class="cls-5" cx="36.89" cy="25" rx="7.01" ry="7"/></g></g><g id="Orange"><g class="cls-6"><ellipse class="cls-7" cx="13.11" cy="25" rx="7.01" ry="7"/></g></g><path id="Overlap" class="cls-8" d="M19.05,28.7a7,7,0,0,1,0-7.41,6.95,6.95,0,0,1,0,7.41Z"/><path id="Overlap-2" data-name="Overlap" class="cls-8" d="M31,21.29a7,7,0,0,1,0,7.41,6.95,6.95,0,0,1,0-7.41Z"/></g></g></g></svg>